# xmcd
# Copyright (c) 1998 CDDB Inc.
#
# Track frame offsets:
#	150
#	20320
#	43345
#	70213
#	95645
#	122389
#	167922
#
# Disc length: 2668 seconds
#
# Revision: 2
# Processed by: cddbd v1.5.1PL0 Copyright (c) Steve Scherf et al.
# Submitted via: AudioCatalyst 2.10full
#
DISCID=590a6a07
DTITLE=O.H. Radish Golden Rules - vody objali menja tselikom do dushi mojey
DYEAR=1900
DGENRE=
TTITLE0=Dzhinn illjuziy
TTITLE1=Novosti
TTITLE2=Zhaba
TTITLE3=Kukaracha
TTITLE4=Rita
TTITLE5=Kitajskii blues
TTITLE6=Vse i nichego live
EXTD=2003
EXTT0=
EXTT1=
EXTT2=
EXTT3=
EXTT4=
EXTT5=
EXTT6=
PLAYORDER=
